<?xml version="1.0" encoding="utf-8"?>
<!-- Generator: Adobe Illustrator 23.0.3, SVG Export Plug-In . SVG Version: 6.00 Build 0)  -->
<svg version="1.1" xmlns="http://www.w3.org/2000/svg" xmlns:xlink="http://www.w3.org/1999/xlink" x="0px" y="0px"
	 viewBox="0 0 500 500" style="enable-background:new 0 0 500 500;" xml:space="preserve">
<style type="text/css">
	.st0{fill:url(#SVGID_1_);stroke:#FFFFFF;stroke-miterlimit:10;}
	.st1{fill:url(#SVGID_2_);stroke:#FFFFFF;stroke-miterlimit:10;}
	.st2{fill:url(#SVGID_3_);stroke:#FFFFFF;stroke-miterlimit:10;}
	.st3{fill:url(#SVGID_4_);stroke:#FFFFFF;stroke-miterlimit:10;}
	.st4{fill:url(#SVGID_5_);stroke:#FFFFFF;stroke-miterlimit:10;}
	.st5{fill:url(#SVGID_6_);stroke:#FFFFFF;stroke-miterlimit:10;}
	.st6{fill:url(#SVGID_7_);stroke:#FFFFFF;stroke-miterlimit:10;}
	.st7{fill:url(#SVGID_8_);stroke:#FFFFFF;stroke-miterlimit:10;}
	.st8{fill:url(#SVGID_9_);}
	.st9{fill:url(#SVGID_10_);}
	.st10{fill:url(#SVGID_11_);}
	.st11{fill:url(#SVGID_12_);}
	.st12{fill:url(#SVGID_13_);}
	.st13{fill:url(#SVGID_14_);}
	.st14{fill:url(#SVGID_15_);}
	.st15{fill:url(#SVGID_16_);}
	.st16{fill:url(#SVGID_17_);}
	.st17{fill:url(#SVGID_18_);}
	.st18{fill:url(#SVGID_19_);}
	.st19{fill:url(#SVGID_20_);}
	.st20{fill:url(#SVGID_21_);}
	.st21{fill:url(#SVGID_22_);}
</style>
<g id="Layer_1">
	<g>
		<linearGradient id="SVGID_1_" gradientUnits="userSpaceOnUse" x1="111.2042" y1="448.1161" x2="436.8123" y2="448.1161">
			<stop  offset="0.1341" style="stop-color:#0061BF"/>
			<stop  offset="1" style="stop-color:#00F1FF"/>
		</linearGradient>
		<path class="st0" d="M111.2,454.18c6.11,4.05,14.29,9.41,20.6,13.14c15.21,8.07,17.16,9.1,29.91,14.35
			c41.52,14.53,171.07,9.87,229.34-30.17c5.86-4.66,13.64-10.92,19.25-15.88c15.87-15.64,17.17-16.91,26.51-28.57
			C374.95,476.14,152.26,479.52,111.2,454.18"/>
		<linearGradient id="SVGID_2_" gradientUnits="userSpaceOnUse" x1="109.2361" y1="447.4924" x2="438.409" y2="447.4924">
			<stop  offset="0.1341" style="stop-color:#0061BF"/>
			<stop  offset="1" style="stop-color:#00F1FF"/>
		</linearGradient>
		<path class="st1" d="M111.2,454.18c48.58,28.12,270.54,17.57,325.61-47.14c-14.77,17.41-15.65,18.46-26.51,28.57
			c-5.69,4.87-13.32,11.32-19.25,15.88c-59.61,40.2-188.65,44.8-229.34,30.17c-14.85-6.38-17.52-7.52-29.91-14.35
			C125.56,463.48,117.25,458.33,111.2,454.18 M109.24,452.76c6.67,4.51,15.65,10.42,22.57,14.55c15.31,8.12,17.28,9.17,30.65,14.64
			l1.66,0.64c45.88,15.53,171.72,7.02,224.69-29.46c6.57-5.11,15.23-12.05,21.5-17.53c15.92-15.69,17.23-16.97,26.75-28.88
			l1.35-1.74C376.74,475.2,151.2,478.55,109.24,452.76"/>
		<linearGradient id="SVGID_3_" gradientUnits="userSpaceOnUse" x1="32.0545" y1="355.6125" x2="486.7684" y2="355.6125">
			<stop  offset="0.1341" style="stop-color:#0061BF"/>
			<stop  offset="1" style="stop-color:#00F1FF"/>
		</linearGradient>
		<path class="st2" d="M32.05,358.37l7.54,15.12c12.18,20.48,12.65,21.27,21.32,32.54l0.13,0.17
			c45.33,44.58,377.65,25.01,412.2-64.33l1.16-3.24c7.19-23.4,7.47-24.31,9.92-38.18l2.44-18.42
			c-11.54,59.32-132.75,84.36-169.63,90.62c-151.42,25.72-269.73,9.2-284.66-13.47C32.33,358.95,32.18,358.61,32.05,358.37"/>
		<linearGradient id="SVGID_4_" gradientUnits="userSpaceOnUse" x1="31.0708" y1="354.9012" x2="487" y2="354.9012">
			<stop  offset="0.1341" style="stop-color:#0061BF"/>
			<stop  offset="1" style="stop-color:#00F1FF"/>
		</linearGradient>
		<path class="st3" d="M32.05,358.37c39.93,57.86,435.22,30.11,454.48-74.44c0.1-0.56,0.16-1.33,0.23-1.9l-2.44,18.42
			c-5.24,24.51-5.34,24.98-9.92,38.18l-1.16,3.24c-43.9,93.18-377.19,106.89-412.2,64.33l-0.13-0.17
			c-13.61-18.92-14.43-20.05-21.32-32.54L32.05,358.37 M31.07,356.18c2.55,5.2,5.77,12.22,8.53,17.31
			c12.18,20.48,12.65,21.27,21.32,32.54l1.61,2.04c45.24,43.66,375.74,23.91,409.82-63.78l2.07-5.67
			c7.19-23.4,7.47-24.31,9.92-38.18c0.83-6.32,2.12-14.73,2.67-21.08c-10.91,59.5-132.09,84.71-168.98,91.02
			c-151.91,25.98-271.09,9.57-286.39-13.14C31.43,356.94,31.24,356.5,31.07,356.18"/>
		<linearGradient id="SVGID_5_" gradientUnits="userSpaceOnUse" x1="25.6067" y1="133.1392" x2="435.383" y2="133.1392">
			<stop  offset="0.1341" style="stop-color:#0061BF"/>
			<stop  offset="1" style="stop-color:#00F1FF"/>
		</linearGradient>
		<path class="st4" d="M51.45,126.82c-3.06,4.93-7.31,11.41-10.17,16.46c-11,21.42-11.21,21.83-15.56,33.47
			c-6.92,46.34,295.55,45.16,386.34-20.04c38.3-27.51,19.33-50.27,13.1-57.75c-7.09-7.19-16.84-16.47-24.41-23.14
			c-7.54-5.79-17.83-13.19-25.73-18.47c49.31,33.18,10.43,71.14-92.45,90.28C156.25,171.12,35.06,150.95,51.45,126.82"/>
		<linearGradient id="SVGID_6_" gradientUnits="userSpaceOnUse" x1="24.7909" y1="133.445" x2="436.6393" y2="133.445">
			<stop  offset="0.1341" style="stop-color:#0061BF"/>
			<stop  offset="1" style="stop-color:#00F1FF"/>
		</linearGradient>
		<path class="st5" d="M51.45,126.82c-15.89,34.68,179.98,45.19,290.39,5.48c58.39-21,71.72-51.12,33.18-74.96
			c7.89,5.29,18.2,12.67,25.73,18.47c7.56,6.69,17.34,15.94,24.41,23.14C485,173.13,258.95,222.52,103.34,206.88
			c-13.7-1.38-81.84-9.3-77.62-30.13c9.48-22.68,9.48-22.68,15.56-33.47C44.32,138.33,48.21,131.64,51.45,126.82 M52.78,124.87
			c-3.49,5.5-8.26,12.76-11.5,18.41c-10.98,21.39-11.41,22.22-16.27,35.41l-0.12,0.33c-6.34,46.32,298.11,44.79,388.62-20.5
			c25.36-18.29,29.9-37.66,13.47-57.57C410.93,84.31,410.62,84,400.75,75.81c-16.86-12.94-17.52-13.45-28.15-19.96
			c55.45,36.35-0.65,70.52-76.24,86.89c-117.31,25.4-258.3,10.52-243.89-17.39C52.54,125.2,52.68,125.01,52.78,124.87"/>
		<linearGradient id="SVGID_7_" gradientUnits="userSpaceOnUse" x1="87.7561" y1="69.2208" x2="348.5349" y2="69.2208">
			<stop  offset="0.1341" style="stop-color:#0061BF"/>
			<stop  offset="1" style="stop-color:#00F1FF"/>
		</linearGradient>
		<path class="st6" d="M277.31,28.96c25.84,6.23,25.21,17.67,11.22,25.76c-44.29,25.6-163.36,19.68-157.67,0.41
			c0.79-2.68,4.71-4.8,6-5.5c-4.28,2.46-10.03,5.67-14.22,8.27C106.4,68.9,103.48,70.88,90.19,82.38l-0.06,0.05
			c-15.17,17.22,44.33,30.48,117.91,26.26c99.02-5.67,162.57-35.92,133.33-63.46c-4.72-4.44-10.13-7.15-14.91-9.54
			C310.89,31.35,294.41,29.03,277.31,28.96"/>
		<linearGradient id="SVGID_8_" gradientUnits="userSpaceOnUse" x1="86.076" y1="70.1006" x2="350.7381" y2="70.1006">
			<stop  offset="0.1341" style="stop-color:#0061BF"/>
			<stop  offset="1" style="stop-color:#00F1FF"/>
		</linearGradient>
		<path class="st7" d="M277.31,28.96c17.1,0.07,33.58,2.39,49.17,6.73c41.47,20.91,18.52,43.61-22.62,56.83
			c-95.37,30.65-231.08,15.14-215.5-8.14c0.44-0.66,1.24-1.37,1.78-1.96l0.06-0.05c15.52-12.98,17.91-14.98,32.44-24.47
			c4.25-2.5,9.88-5.92,14.22-8.27c-13.6,8.14-1.51,13.8,11.03,17.11c55.74,14.72,161.81-4.62,149.34-27.22
			C295.8,36.94,291.32,32.13,277.31,28.96 M275.13,28.97c25.58,5.69,25.43,16.68,12.06,24.61c-42.89,25.41-159.58,19.65-154.37,0.55
			c0.73-2.69,4.44-4.69,6.22-5.64c-4.95,2.78-11.57,6.46-16.4,9.43C106.4,68.9,103.48,70.88,90.19,82.38L88.4,84
			c-15.91,18.42,52.3,31.88,130.34,25.73c96.13-7.58,153.2-36.83,124.61-63.86c-4.77-4.51-10.38-7.34-14.89-9.61
			C311.62,31.36,293.74,28.83,275.13,28.97"/>
	</g>
</g>
<g id="Layer_2">
</g>
<g id="Layer_3">
</g>
<g id="Layer_4">
</g>
<g id="Layer_5">
	<g>
		<linearGradient id="SVGID_9_" gradientUnits="userSpaceOnUse" x1="63.6714" y1="255.9434" x2="150.5947" y2="255.9434">
			<stop  offset="0.1341" style="stop-color:#0061BF"/>
			<stop  offset="1" style="stop-color:#00F1FF"/>
		</linearGradient>
		<path class="st8" d="M76.23,245.06c-8.37,10.12-12.56,22.43-12.56,36.94H82.1c0-7.29,1.97-13.9,5.91-19.84
			c4.64-6.72,10.67-10.08,18.07-10.08h44.52v-22.19H106.6C94.73,229.89,84.61,234.95,76.23,245.06z"/>
		<linearGradient id="SVGID_10_" gradientUnits="userSpaceOnUse" x1="64.1125" y1="307.9984" x2="150.5947" y2="307.9984">
			<stop  offset="0.1341" style="stop-color:#0061BF"/>
			<stop  offset="1" style="stop-color:#00F1FF"/>
		</linearGradient>
		<path class="st9" d="M126.7,301.73c-4.64,6.72-10.67,10.08-18.07,10.08H64.11v22.3h43.99c11.81,0,21.95-5.04,30.41-15.12
			c4-4.86,7.01-10.52,9.04-16.99c2.03-6.47,3.04-13.17,3.04-20.1h-17.98C132.61,289.18,130.64,295.79,126.7,301.73z"/>
		<linearGradient id="SVGID_11_" gradientUnits="userSpaceOnUse" x1="184.1051" y1="280.2045" x2="255.6598" y2="280.2045">
			<stop  offset="0.1341" style="stop-color:#0061BF"/>
			<stop  offset="1" style="stop-color:#00F1FF"/>
		</linearGradient>
		<path class="st10" d="M219.88,236.78c-10.09,0-18.57,4.18-25.46,12.53c-6.88,8.35-10.32,18.65-10.32,30.9
			c0,12.13,3.94,22.4,11.83,30.81c7.88,8.41,15.87,12.62,23.95,12.62c10.14,0,18.63-4.16,25.49-12.48
			c6.86-8.32,10.29-18.64,10.29-30.94c0-12.13-3.5-22.39-10.51-30.81C238.15,240.99,229.73,236.78,219.88,236.78z M234.43,297.9
			c-3.97,4.83-8.67,7.24-14.1,7.24c-6.07,0-11.07-2.95-14.99-8.85c-3.33-4.94-5-10.3-5-16.08c0-6.85,1.97-12.72,5.91-17.6
			c3.94-4.88,8.63-7.33,14.07-7.33c6.17,0,11.19,2.8,15.06,8.4c3.33,4.94,5,10.45,5,16.53C240.38,287.17,238.39,293.07,234.43,297.9
			z"/>
		<linearGradient id="SVGID_12_" gradientUnits="userSpaceOnUse" x1="283.1871" y1="297.6757" x2="298.5414" y2="297.6757">
			<stop  offset="0.1341" style="stop-color:#0061BF"/>
			<stop  offset="1" style="stop-color:#00F1FF"/>
		</linearGradient>
		<rect x="283.19" y="276.01" class="st11" width="15.35" height="43.33"/>
		<linearGradient id="SVGID_13_" gradientUnits="userSpaceOnUse" x1="299.6434" y1="297.7646" x2="355.623" y2="297.7646">
			<stop  offset="0.1341" style="stop-color:#0061BF"/>
			<stop  offset="1" style="stop-color:#00F1FF"/>
		</linearGradient>
		<polygon class="st12" points="299.64,276.1 336.3,319.43 355.62,319.43 318.96,276.1 		"/>
		<linearGradient id="SVGID_14_" gradientUnits="userSpaceOnUse" x1="290.8271" y1="254.2964" x2="355.623" y2="254.2964">
			<stop  offset="0.1341" style="stop-color:#0061BF"/>
			<stop  offset="1" style="stop-color:#00F1FF"/>
		</linearGradient>
		<path class="st13" d="M319.85,232.58h-29.02v18.5h29.46c6.17,0,11.19,2.8,15.06,8.4c3.28,4.94,4.92,10.45,4.92,16.53h15.35
			c0-12.15-3.5-22.43-10.51-30.83C338.11,236.78,329.69,232.58,319.85,232.58z"/>
		<linearGradient id="SVGID_15_" gradientUnits="userSpaceOnUse" x1="366.5665" y1="280.2863" x2="433.0516" y2="280.2863">
			<stop  offset="0.1341" style="stop-color:#0061BF"/>
			<stop  offset="1" style="stop-color:#00F1FF"/>
		</linearGradient>
		<polygon class="st14" points="366.57,236.86 366.57,255.18 384.71,255.18 384.64,323.71 415.57,323.71 415.57,255.18 
			433.05,255.18 433.05,236.86 		"/>
	</g>
	<g>
		<linearGradient id="SVGID_16_" gradientUnits="userSpaceOnUse" x1="67.2454" y1="256.8369" x2="154.1687" y2="256.8369">
			<stop  offset="0.1341" style="stop-color:#0061BF"/>
			<stop  offset="1" style="stop-color:#00F1FF"/>
		</linearGradient>
		<path class="st15" d="M79.81,245.95c-8.37,10.12-12.56,22.43-12.56,36.94h18.43c0-7.29,1.97-13.9,5.91-19.84
			c4.64-6.72,10.67-10.08,18.07-10.08h44.52v-22.19h-43.99C98.31,230.78,88.18,235.84,79.81,245.95z"/>
		<linearGradient id="SVGID_17_" gradientUnits="userSpaceOnUse" x1="67.6864" y1="308.8919" x2="154.1687" y2="308.8919">
			<stop  offset="0.1341" style="stop-color:#0061BF"/>
			<stop  offset="1" style="stop-color:#00F1FF"/>
		</linearGradient>
		<path class="st16" d="M130.28,302.62c-4.64,6.72-10.67,10.08-18.07,10.08H67.69V335h43.99c11.81,0,21.95-5.04,30.41-15.12
			c4-4.86,7.01-10.52,9.04-16.99c2.03-6.47,3.04-13.17,3.04-20.1h-17.98C136.18,290.07,134.21,296.69,130.28,302.62z"/>
		<linearGradient id="SVGID_18_" gradientUnits="userSpaceOnUse" x1="187.6791" y1="281.098" x2="259.2337" y2="281.098">
			<stop  offset="0.1341" style="stop-color:#0061BF"/>
			<stop  offset="1" style="stop-color:#00F1FF"/>
		</linearGradient>
		<path class="st17" d="M223.46,237.67c-10.09,0-18.57,4.18-25.46,12.53c-6.88,8.35-10.32,18.65-10.32,30.9
			c0,12.13,3.94,22.4,11.83,30.81c7.88,8.41,15.87,12.62,23.95,12.62c10.14,0,18.63-4.16,25.49-12.48
			c6.86-8.32,10.29-18.64,10.29-30.94c0-12.13-3.5-22.39-10.51-30.81C241.72,241.88,233.3,237.67,223.46,237.67z M238,298.79
			c-3.97,4.83-8.67,7.24-14.1,7.24c-6.07,0-11.07-2.95-14.99-8.85c-3.33-4.94-5-10.3-5-16.08c0-6.85,1.97-12.72,5.91-17.6
			c3.94-4.88,8.63-7.33,14.07-7.33c6.17,0,11.19,2.8,15.06,8.4c3.33,4.94,5,10.45,5,16.53C243.95,288.07,241.97,293.96,238,298.79z"
			/>
		<linearGradient id="SVGID_19_" gradientUnits="userSpaceOnUse" x1="286.761" y1="298.5692" x2="302.1154" y2="298.5692">
			<stop  offset="0.1341" style="stop-color:#0061BF"/>
			<stop  offset="1" style="stop-color:#00F1FF"/>
		</linearGradient>
		<rect x="286.76" y="276.9" class="st18" width="15.35" height="43.33"/>
		<linearGradient id="SVGID_20_" gradientUnits="userSpaceOnUse" x1="303.2174" y1="298.6581" x2="359.1969" y2="298.6581">
			<stop  offset="0.1341" style="stop-color:#0061BF"/>
			<stop  offset="1" style="stop-color:#00F1FF"/>
		</linearGradient>
		<polygon class="st19" points="303.22,276.99 339.88,320.33 359.2,320.33 322.54,276.99 		"/>
		<linearGradient id="SVGID_21_" gradientUnits="userSpaceOnUse" x1="294.4011" y1="255.1899" x2="359.1969" y2="255.1899">
			<stop  offset="0.1341" style="stop-color:#0061BF"/>
			<stop  offset="1" style="stop-color:#00F1FF"/>
		</linearGradient>
		<path class="st20" d="M323.42,233.48H294.4v18.5h29.46c6.17,0,11.19,2.8,15.06,8.4c3.28,4.94,4.92,10.45,4.92,16.53h15.35
			c0-12.15-3.5-22.43-10.51-30.83C341.69,237.68,333.26,233.48,323.42,233.48z"/>
		<linearGradient id="SVGID_22_" gradientUnits="userSpaceOnUse" x1="370.1405" y1="281.1798" x2="436.6256" y2="281.1798">
			<stop  offset="0.1341" style="stop-color:#0061BF"/>
			<stop  offset="1" style="stop-color:#00F1FF"/>
		</linearGradient>
		<polygon class="st21" points="370.14,237.76 370.14,256.07 388.29,256.07 388.21,324.6 419.14,324.6 419.14,256.07 436.63,256.07 
			436.63,237.76 		"/>
	</g>
</g>
</svg>
